<svg version="1.1" id="Layer_1" xmlns="http://www.w3.org/2000/svg" xmlns:xlink="http://www.w3.org/1999/xlink" x="0px" y="0px"
	 width="100%" viewBox="0 0 192 192" enable-background="new 0 0 192 192" xml:space="preserve">
<path fill="#FFFFFF" opacity="1.000000" stroke="none" 
	d="
M105.000000,193.000000 
	C70.000000,193.000000 35.500004,193.000000 1.000005,193.000000 
	C1.000003,129.000000 1.000003,65.000015 1.000002,1.000013 
	C64.999992,1.000009 128.999985,1.000009 192.999969,1.000004 
	C192.999985,64.999985 192.999985,128.999969 193.000000,192.999969 
	C163.833328,193.000000 134.666672,193.000000 105.000000,193.000000 
M96.963539,69.213982 
	C96.784592,68.940666 96.546272,68.736649 96.040298,67.979256 
	C87.037926,59.063133 78.035545,50.147011 68.127312,40.953041 
	C60.708561,40.918022 53.287037,40.766590 45.873341,40.943432 
	C44.338486,40.980042 42.832737,42.236740 40.986103,43.837193 
	C41.073692,52.230854 41.161285,60.624519 41.474297,69.615326 
	C50.625309,78.688278 59.776321,87.761238 69.263039,97.441521 
	C78.439926,106.434227 87.616821,115.426933 97.003510,124.764297 
	C97.003510,124.764297 97.270073,125.067215 97.511017,125.650108 
	C106.676445,134.693192 115.841873,143.736282 125.905289,153.093628 
	C131.340179,153.120239 136.778336,153.269760 142.208649,153.124908 
	C145.213364,153.044769 148.204926,152.471741 151.986191,151.892746 
	C152.347000,151.186401 153.023560,150.478638 153.020416,149.773895 
	C152.983597,141.497559 152.844833,133.221680 152.506210,124.354828 
	C143.368484,115.328178 134.230743,106.301529 124.791214,96.978142 
	C124.791214,96.978142 124.420631,96.773689 124.116707,96.154037 
	C115.152840,87.305016 106.188972,78.455994 96.963539,69.213982 
M69.763954,153.058609 
	C78.304024,153.058609 86.844093,153.058609 95.629761,153.058609 
	C86.562302,143.743942 77.848000,134.792068 68.919388,125.402809 
	C68.719849,125.130013 68.458061,124.945564 67.847557,124.248344 
	C59.155594,115.522858 50.463627,106.797371 41.144234,97.442039 
	C41.144234,107.503952 41.144234,116.280739 41.044079,125.467041 
	C41.044079,125.467041 41.117405,125.882202 40.937912,126.823959 
	C40.920853,133.927917 40.986221,141.033447 40.852257,148.135193 
	C40.784420,151.731644 42.290142,153.229950 45.877888,153.144424 
	C53.304741,152.967438 60.735767,152.965698 68.486008,152.959366 
	C68.486008,152.959366 68.806580,152.890198 69.763954,153.058609 
M126.061974,69.717682 
	C134.793167,78.475563 143.524384,87.233437 152.889816,96.627487 
	C152.889816,86.614464 152.889816,77.826736 152.979507,68.593185 
	C152.979507,68.593185 152.918991,68.142471 153.049362,67.187927 
	C153.063400,60.071278 152.987228,52.952831 153.129013,45.838726 
	C153.201569,42.198032 151.653290,40.787132 148.073898,40.872162 
	C140.631851,41.048939 133.185059,41.024994 125.494339,41.046055 
	C125.494339,41.046055 125.250214,41.093613 124.281548,40.935879 
	C115.727707,40.935879 107.173866,40.935879 98.193695,40.935879 
	C107.386581,50.335255 116.136002,59.281193 125.078926,68.612862 
	C125.238365,68.873535 125.466949,69.038269 126.061974,69.717682 
z"/>
<path fill="#F3C132" opacity="1.000000" stroke="none" 
	d="
M41.313572,42.931122 
	C42.832737,42.236740 44.338486,40.980042 45.873341,40.943432 
	C53.287037,40.766590 60.708561,40.918022 68.539589,41.538086 
	C68.878448,51.072201 68.805031,60.021275 68.531372,68.904869 
	C68.331131,68.839394 67.923355,68.733337 67.768875,68.465057 
	C61.446678,61.992054 55.332676,55.732510 49.084305,49.610088 
	C46.649883,47.224739 43.912796,45.148277 41.313572,42.931122 
z"/>
<path fill="#F3BF34" opacity="1.000000" stroke="none" 
	d="
M152.918991,68.142471 
	C152.918991,68.142471 152.979507,68.593185 152.474091,68.800560 
	C143.234009,69.040977 134.499344,69.074013 125.764664,69.107056 
	C125.466949,69.038269 125.238365,68.873535 125.048424,67.934898 
	C125.095352,58.535828 125.172783,49.814720 125.250214,41.093613 
	C125.250214,41.093613 125.494339,41.046055 125.810257,41.350494 
	C135.057114,50.484112 143.988052,59.313290 152.918991,68.142471 
z"/>
<path fill="#95C06C" opacity="1.000000" stroke="none" 
	d="
M125.007294,152.779358 
	C115.841873,143.736282 106.676445,134.693192 97.835770,125.346268 
	C106.776085,125.004562 115.391663,124.966705 124.230904,124.948196 
	C124.454575,124.967537 124.898308,124.898987 124.989403,124.988983 
	C125.080498,125.078987 125.262886,125.258789 125.241776,125.426331 
	C125.220665,125.593864 125.247246,125.930542 125.173187,126.403961 
	C125.068520,135.511368 125.037910,144.145370 125.007294,152.779358 
z"/>
<path fill="#0E69AD" opacity="1.000000" stroke="none" 
	d="
M68.134026,124.849457 
	C68.458061,124.945564 68.719849,125.130013 68.960129,126.099060 
	C68.936111,135.493607 68.871346,144.191895 68.806580,152.890198 
	C68.806580,152.890198 68.486008,152.959366 68.153824,152.635025 
	C58.920235,143.501190 50.018822,134.691696 41.117409,125.882202 
	C41.117405,125.882202 41.044079,125.467041 41.552322,125.261322 
	C50.751720,124.986885 59.442871,124.918175 68.134026,124.849457 
z"/>
<path fill="#94BF6D" opacity="1.000000" stroke="none" 
	d="
M67.923355,68.733337 
	C67.923355,68.733337 68.331131,68.839394 68.635071,68.871811 
	C68.939003,68.904228 69.146515,68.970009 69.083572,69.436737 
	C69.012741,78.846764 69.004852,87.790070 68.964188,96.747963 
	C68.931412,96.762550 68.927330,96.834190 68.927330,96.834190 
	C59.776321,87.761238 50.625309,78.688278 41.809795,69.293396 
	C50.737980,68.892090 59.330669,68.812714 67.923355,68.733337 
z"/>
<path fill="#95BF6C" opacity="1.000000" stroke="none" 
	d="
M125.093018,97.274879 
	C134.230743,106.301529 143.368484,115.328178 152.174255,124.682175 
	C142.982498,125.092606 134.122696,125.175697 125.262886,125.258789 
	C125.262886,125.258789 125.080498,125.078987 125.042236,124.531784 
	C125.033661,115.081345 125.063339,106.178116 125.093018,97.274879 
z"/>
<path fill="#F4C032" opacity="1.000000" stroke="none" 
	d="
M124.942116,97.126511 
	C125.063339,106.178116 125.033661,115.081345 124.951141,124.441788 
	C124.898308,124.898987 124.454575,124.967537 124.082321,124.656044 
	C114.866028,115.580475 106.021988,106.816406 97.132370,97.816780 
	C97.086784,97.581230 97.092110,97.101410 97.552101,97.067368 
	C106.814941,96.946785 115.617783,96.860237 124.420631,96.773689 
	C124.420631,96.773689 124.791214,96.978142 124.942116,97.126511 
z"/>
<path fill="#65C3DB" opacity="1.000000" stroke="none" 
	d="
M68.835312,68.937286 
	C68.805031,60.021275 68.878448,51.072201 68.992523,41.677010 
	C78.035545,50.147011 87.037926,59.063133 95.667542,68.397964 
	C86.749481,68.886726 78.204185,68.956764 69.529938,69.020325 
	C69.400993,69.013832 69.146515,68.970009 69.146515,68.970009 
	C69.146515,68.970009 68.939003,68.904228 68.835312,68.937286 
z"/>
<path fill="#61C0D8" opacity="1.000000" stroke="none" 
	d="
M125.241776,125.426331 
	C134.122696,125.175697 142.982498,125.092606 152.287628,124.977592 
	C152.844833,133.221680 152.983597,141.497559 153.020416,149.773895 
	C153.023560,150.478638 152.347000,151.186401 151.496613,151.668396 
	C142.420441,142.939560 133.833847,134.435043 125.247246,125.930542 
	C125.247246,125.930542 125.220665,125.593864 125.241776,125.426331 
z"/>
<path fill="#ED88B3" opacity="1.000000" stroke="none" 
	d="
M97.092110,97.101410 
	C97.092110,97.101410 97.086784,97.581230 97.064972,98.277512 
	C96.960014,107.455750 96.876862,115.937691 96.793716,124.419640 
	C87.616821,115.426933 78.439926,106.434227 69.095184,97.137856 
	C68.927330,96.834190 68.931412,96.762550 69.426987,96.840775 
	C78.938522,96.935570 87.954475,96.952133 97.000992,97.001747 
	C97.031548,97.034798 97.092110,97.101410 97.092110,97.101410 
z"/>
<path fill="#EC87B3" opacity="1.000000" stroke="none" 
	d="
M124.268669,96.463867 
	C115.617783,96.860237 106.814941,96.946785 97.552101,97.067368 
	C97.092110,97.101410 97.031548,97.034798 97.033737,96.749214 
	C97.012573,96.295433 96.989204,96.127235 96.981018,95.493179 
	C97.072502,86.553871 97.148804,78.080421 97.225098,69.606964 
	C106.188972,78.455994 115.152840,87.305016 124.268669,96.463867 
z"/>
<path fill="#F4E829" opacity="1.000000" stroke="none" 
	d="
M125.913315,69.412369 
	C134.499344,69.074013 143.234009,69.040977 152.429260,69.023468 
	C152.889816,77.826736 152.889816,86.614464 152.889816,96.627487 
	C143.524384,87.233437 134.793167,78.475563 125.913315,69.412369 
z"/>
<path fill="#0A67AC" opacity="1.000000" stroke="none" 
	d="
M97.094315,69.410477 
	C97.148804,78.080421 97.072502,86.553871 96.653671,95.422195 
	C87.427063,86.886978 78.542976,77.956894 69.658890,69.026810 
	C78.204185,68.956764 86.749481,68.886726 95.771675,68.709297 
	C96.546272,68.736649 96.784592,68.940666 97.094315,69.410477 
z"/>
<path fill="#62C2DB" opacity="1.000000" stroke="none" 
	d="
M67.990791,124.548904 
	C59.442871,124.918175 50.751720,124.986885 41.602402,125.056564 
	C41.144234,116.280739 41.144234,107.503952 41.144234,97.442039 
	C50.463627,106.797371 59.155594,115.522858 67.990791,124.548904 
z"/>
<path fill="#F4E82A" opacity="1.000000" stroke="none" 
	d="
M96.898613,124.591965 
	C96.876862,115.937691 96.960014,107.455750 97.110550,98.513062 
	C106.021988,106.816406 114.866028,115.580475 123.858650,124.636703 
	C115.391663,124.966705 106.776085,125.004562 97.715294,125.054817 
	C97.270073,125.067215 97.003510,124.764297 96.898613,124.591965 
z"/>
<path fill="#A182B9" opacity="1.000000" stroke="none" 
	d="
M124.765884,41.014748 
	C125.172783,49.814720 125.095352,58.535828 124.951668,67.742035 
	C116.136002,59.281193 107.386581,50.335255 98.193695,40.935879 
	C107.173866,40.935879 115.727707,40.935879 124.765884,41.014748 
z"/>
<path fill="#A182B9" opacity="1.000000" stroke="none" 
	d="
M69.285263,152.974396 
	C68.871346,144.191895 68.936111,135.493607 69.067291,126.317749 
	C77.848000,134.792068 86.562302,143.743942 95.629761,153.058609 
	C86.844093,153.058609 78.304024,153.058609 69.285263,152.974396 
z"/>
<path fill="#F3E82A" opacity="1.000000" stroke="none" 
	d="
M67.768875,68.465057 
	C59.330669,68.812714 50.737980,68.892090 41.697083,68.994820 
	C41.161285,60.624519 41.073692,52.230854 41.149837,43.384155 
	C43.912796,45.148277 46.649883,47.224739 49.084305,49.610088 
	C55.332676,55.732510 61.446678,61.992054 67.768875,68.465057 
z"/>
<path fill="#ED84B2" opacity="1.000000" stroke="none" 
	d="
M152.984177,67.665199 
	C143.988052,59.313290 135.057114,50.484112 125.933197,41.369244 
	C133.185059,41.024994 140.631851,41.048939 148.073898,40.872162 
	C151.653290,40.787132 153.201569,42.198032 153.129013,45.838726 
	C152.987228,52.952831 153.063400,60.071278 152.984177,67.665199 
z"/>
<path fill="#A182BA" opacity="1.000000" stroke="none" 
	d="
M41.027660,126.353081 
	C50.018822,134.691696 58.920235,143.501190 67.993362,152.601288 
	C60.735767,152.965698 53.304741,152.967438 45.877888,153.144424 
	C42.290142,153.229950 40.784420,151.731644 40.852257,148.135193 
	C40.986221,141.033447 40.920853,133.927917 41.027660,126.353081 
z"/>
<path fill="#0A67AB" opacity="1.000000" stroke="none" 
	d="
M125.173187,126.403961 
	C133.833847,134.435043 142.420441,142.939560 151.104736,151.782471 
	C148.204926,152.471741 145.213364,153.044769 142.208649,153.124908 
	C136.778336,153.269760 131.340179,153.120239 125.456291,152.936493 
	C125.037910,144.145370 125.068520,135.511368 125.173187,126.403961 
z"/>
<path fill="#9D82B9" opacity="1.000000" stroke="none" 
	d="
M69.529938,69.020325 
	C78.542976,77.956894 87.427063,86.886978 96.638489,95.888046 
	C96.989204,96.127235 97.012573,96.295433 97.003181,96.716164 
	C87.954475,96.952133 78.938522,96.935570 69.459770,96.826187 
	C69.004852,87.790070 69.012741,78.846764 69.083572,69.436737 
	C69.146515,68.970009 69.400993,69.013832 69.529938,69.020325 
z"/>
</svg>